<svg xmlns="http://www.w3.org/2000/svg" width="512" height="512" viewBox="0 0 512 512" version="1.1"><path d="M 252.593 2.250 C 248.091 9.223, 232.978 50.875, 225.633 76.555 C 201.969 159.290, 197.599 247.727, 214 311.964 C 215.048 316.069, 215.795 319.538, 215.661 319.673 C 215.526 319.807, 212.960 316.681, 209.958 312.725 C 197.644 296.499, 168.042 268.281, 145.500 251.281 C 109.620 224.222, 62.486 199.464, 16.312 183.423 C 8.293 180.637, 8.081 180.617, 6.062 182.444 C 4.928 183.470, 4 184.932, 4 185.692 C 4 188.011, 16.214 212.694, 24.440 227 C 58.952 287.015, 103.325 336.397, 150.239 366.999 L 158.978 372.700 143.739 373.321 C 118.487 374.350, 95.721 378.508, 71.108 386.587 C 55.526 391.701, 35.490 400.310, 32.250 403.284 C 29.378 405.920, 29.381 409.472, 32.257 412.348 C 36.581 416.672, 68.848 429.157, 89.453 434.478 C 118.941 442.094, 152.894 444.775, 177.144 441.403 L 181.787 440.757 175.352 453.604 C 169.199 465.886, 163.526 481.849, 160.888 494.302 C 159.725 499.792, 159.776 500.221, 161.857 502.301 L 164.055 504.499 172.277 501.636 C 203.467 490.777, 230.729 469.964, 243.841 447 L 246.981 441.500 246.991 474.295 L 247 507.091 249.455 509.545 C 252.176 512.267, 258.269 512.882, 261.087 510.718 C 264.768 507.892, 265 505.708, 265 473.937 L 265 442.743 270.127 450.622 C 277.112 461.356, 292.289 476.296, 303.998 483.963 C 319.086 493.842, 343.897 504.802, 348.132 503.458 C 351.582 502.363, 352.174 499.568, 350.502 492.267 C 347.587 479.539, 342.507 465.502, 336.375 453.237 L 330.245 440.974 338.372 441.737 C 351.875 443.005, 379.518 442.401, 392 440.566 C 415.362 437.131, 434.699 431.911, 457.500 422.882 C 475.965 415.571, 480.189 413.249, 481.428 409.725 C 482.992 405.278, 479.912 402.421, 467.496 396.805 C 436.907 382.969, 401.926 374.693, 368.235 373.320 L 352.971 372.698 360.574 367.827 C 413.343 334.017, 465.904 272.077, 500.587 202.827 C 504.664 194.686, 508 186.910, 508 185.548 C 508 181.272, 504.865 180.553, 497.197 183.070 C 473.114 190.973, 428.165 211.752, 405.809 225.317 C 362.745 251.447, 329.669 279.460, 303.459 312 C 299.693 316.675, 296.943 319.627, 297.347 318.560 C 297.752 317.494, 299.399 310.069, 301.007 302.060 C 316.036 227.242, 308.832 140.255, 280.501 54.460 C 274.266 35.577, 261.916 3.809, 259.837 1.304 C 258.130 -0.754, 254.201 -0.241, 252.593 2.250" stroke="none" fill="#000000" fill-rule="evenodd"/></svg>