<svg xmlns="http://www.w3.org/2000/svg" width="512" height="512" viewBox="0 0 512 512" version="1.1"><path d="M 117.286 40.451 C 109.571 42.862, 104.182 46.873, 97.440 55.223 C 46.913 117.804, 35.513 197.476, 66.100 274.250 C 73.784 293.538, 86.033 317.308, 95.266 330.849 L 98.232 335.197 103.978 317.849 C 107.139 308.307, 111.787 295.476, 114.308 289.335 C 118.839 278.298, 131.310 252.543, 135.170 246.250 C 137.071 243.149, 137.111 242.321, 136.019 228.250 C 133.828 200.016, 129.683 171.979, 124.009 147.023 C 120.640 132.204, 120.876 129.289, 125.615 127.130 C 129.172 125.509, 130.571 125.711, 133.361 128.250 C 135.263 129.980, 136.417 133.044, 138.352 141.500 C 143.697 164.857, 148.088 191.069, 149.492 208 C 150.580 221.132, 150.495 221.038, 155.240 214.351 C 162.378 204.292, 173.483 190.638, 181.635 181.900 C 190.270 172.642, 208.218 155.566, 211.750 153.247 C 214.796 151.247, 214.611 149.416, 209.957 135.500 C 199.718 104.889, 181.328 76.740, 157.144 54.665 C 153.099 50.972, 147.924 46.668, 145.644 45.100 C 137.235 39.314, 126.535 37.560, 117.286 40.451 M 408 90.615 C 372.455 94.684, 348.146 99.845, 321.937 108.889 C 195.336 152.573, 117.373 259.967, 96.965 418.788 C 94.187 440.405, 93.425 438.811, 103.997 433.502 C 116.551 427.196, 140.253 413.201, 154.500 403.680 C 181.163 385.861, 201.345 369.488, 224.362 347 C 258.086 314.051, 283.501 280.026, 301.165 244.178 C 308.746 228.793, 310.629 226.780, 315.759 228.584 C 317.233 229.102, 319.126 230.751, 319.966 232.248 C 321.376 234.761, 321.311 235.487, 319.110 241.735 C 308.301 272.415, 277.186 315.950, 238.516 354.500 C 189.303 403.558, 138.068 437.473, 67.852 467.469 C 59.408 471.076, 51.712 474.971, 50.750 476.124 C 46.511 481.204, 50.247 489, 56.919 489 C 63.183 489, 103.606 470.597, 131.371 455.106 L 145.976 446.957 155.738 448.917 C 176.293 453.042, 181.948 453.500, 212 453.473 C 234.941 453.453, 244.168 453.053, 253.500 451.675 C 299.013 444.955, 335.870 430.028, 369.456 404.713 C 380.768 396.187, 401.148 375.422, 410.396 363 C 457.025 300.364, 474.590 212.260, 457.395 127.257 C 454.394 112.420, 451.572 105.817, 445.718 99.930 C 439.020 93.195, 432.342 90.620, 421 90.399 C 415.775 90.297, 409.925 90.394, 408 90.615" stroke="none" fill="#000000" fill-rule="evenodd"/></svg>