<svg xmlns="http://www.w3.org/2000/svg" width="512" height="512" viewBox="0 0 512 512" version="1.1"><path d="M 228.589 26.100 C 183.524 30.850, 139.426 55.551, 110.080 92.480 C 99.675 105.574, 84 130.732, 84 134.339 C 84 136.761, 86.413 136.693, 106.500 133.707 C 138.122 129.005, 151.191 130.317, 177.766 140.863 C 193.679 147.178, 201.416 151.193, 224.527 165.127 C 248.055 179.312, 259.083 184.718, 271.616 188.209 C 278.509 190.129, 281.952 190.404, 299 190.392 C 317.334 190.379, 319.038 190.215, 327.500 187.655 C 347.128 181.717, 362.533 172.480, 377 157.975 C 385.215 149.739, 397.736 133.458, 399.608 128.578 C 400.151 127.163, 397.232 127, 371.357 126.998 C 328.748 126.994, 307.700 125.079, 282.196 118.886 C 266.521 115.080, 228.583 102.176, 232.663 102.039 C 233.303 102.018, 242.078 103.140, 252.163 104.533 C 311.888 112.783, 340.531 114.671, 381 113.029 C 410.156 111.846, 425.370 110.566, 430.847 108.837 C 437.089 106.867, 438.286 99.253, 433.090 94.573 C 431.071 92.754, 430.292 92.710, 419.226 93.797 C 412.776 94.429, 402.677 95.245, 396.782 95.608 L 386.064 96.269 373.607 84.299 C 347.168 58.895, 322.097 42.933, 294 33.617 C 271.605 26.192, 250.607 23.779, 228.589 26.100 M 442.989 165.021 C 442.394 166.133, 439.488 173.220, 436.532 180.771 C 423.681 213.597, 417.693 222.314, 396.120 239.597 C 380.433 252.164, 373.348 256.789, 350.898 269.114 C 325.512 283.051, 317.564 288.342, 307.765 297.829 C 282.285 322.497, 270.483 358.702, 276.541 393.619 C 279.137 408.584, 285.075 425.569, 291.644 436.820 L 294.167 441.141 305.709 421.320 C 331.850 376.433, 343.027 360.902, 364.967 338.981 C 378.024 325.935, 403.975 303.262, 400.394 308.028 C 399.786 308.838, 393.897 316.475, 387.307 325 C 348.332 375.420, 335.448 394.923, 313.854 436.182 C 295.069 472.073, 292.460 479.460, 296.975 483.975 C 302.311 489.311, 308.611 486.932, 312.015 478.294 C 313.271 475.107, 317.614 465.951, 321.667 457.946 L 329.036 443.393 335.268 442.110 C 347.236 439.646, 371.845 430.844, 385.618 424.100 C 427.151 403.765, 455.246 374.714, 470.351 336.485 C 485.449 298.273, 485.897 254.315, 471.607 213.408 C 465.058 194.662, 448.573 163, 445.361 163 C 444.651 163, 443.584 163.910, 442.989 165.021 M 34.500 173.155 C 28.244 176.576, 28.420 181.598, 35.112 190.613 C 41.470 199.180, 48.774 210.036, 52.294 216.154 L 54.972 220.808 51.061 236.154 C 32.942 307.239, 46.310 367.256, 89.993 410.939 C 124.136 445.082, 170.276 463, 224.051 463 C 239.132 463, 240 462.895, 240 461.073 C 240 460.013, 234.712 452.469, 228.250 444.309 C 210.290 421.631, 205.839 413.704, 201.533 396.728 C 196.393 376.465, 195.609 367.383, 195.474 326.500 C 195.335 284.804, 194.948 281.085, 189.072 265 C 176.590 230.829, 148.322 205.562, 112.373 196.443 C 101.238 193.618, 86.645 191.705, 79.827 192.177 L 75.154 192.500 87.155 213.500 C 115.784 263.593, 125.996 288.615, 133.431 326.885 C 138.467 352.803, 138.114 352.872, 127.744 328 C 111.746 289.626, 108.837 283.065, 99.375 264 C 87.216 239.504, 61.703 197.441, 49.397 181.603 C 42.218 172.364, 39.139 170.618, 34.500 173.155" stroke="none" fill="#000000" fill-rule="evenodd"/></svg>