<svg xmlns="http://www.w3.org/2000/svg" width="512" height="512" viewBox="0 0 512 512" version="1.1"><path d="M 93 14.955 L 93 29.909 96.250 30.401 C 98.037 30.672, 102.263 31.130, 105.641 31.420 C 122.639 32.878, 134.642 42.644, 136.886 56.842 L 137.653 61.695 132.077 63.410 C 111.939 69.604, 94.838 84.312, 85.467 103.500 C 77.970 118.850, 77.792 120.191, 77.036 167 C 76.642 191.376, 75.935 209.742, 75.322 211.509 C 71.570 222.322, 68.136 226.604, 50.223 242.803 C 17.659 272.252, 0 312.405, 0 357 C -0 383.060, 4.667 402.729, 16.489 426.500 C 37.587 468.921, 76.044 498.574, 123.817 509.260 C 132.105 511.114, 136.598 511.426, 155 511.426 C 173.545 511.426, 177.863 511.122, 186.419 509.211 C 196.593 506.939, 215.666 500.734, 217.205 499.195 C 217.686 498.714, 215.554 495.283, 212.371 491.417 C 187.908 461.701, 169.254 417.941, 163.518 376.814 C 161.502 362.361, 161.539 335.670, 163.592 322.619 C 166.611 303.438, 174.408 283.676, 184.722 269.067 C 196.959 251.733, 217.698 236.473, 237.250 230.416 C 240.412 229.436, 243 228.321, 243 227.939 C 243 227.556, 241.420 224.619, 239.489 221.412 C 237.558 218.206, 235.454 213.989, 234.813 212.041 C 234.047 209.717, 233.421 194.071, 232.990 166.500 C 232.251 119.195, 232.017 117.526, 223.915 101.953 C 213.766 82.445, 195.308 67.616, 174.748 62.452 C 168.166 60.799, 168 60.678, 168 57.538 C 168 52.151, 164.239 39.230, 160.775 32.713 C 156.613 24.885, 147.811 15.469, 140.592 11.123 C 129.539 4.468, 113.198 0, 99.912 0 L 93 0 93 14.955 M 387.035 196.061 C 376.764 200.918, 367.863 207.374, 359.798 215.816 C 347.234 228.966, 340.020 243.276, 335.995 263.026 C 334.825 268.768, 333.725 273.609, 333.551 273.783 C 333.377 273.957, 331.494 272.909, 329.367 271.454 C 312.309 259.786, 289.624 253.341, 269 254.301 C 246.897 255.329, 232.200 261.725, 216.938 276.957 C 208.547 285.331, 206.740 287.786, 202.187 297 C 199.334 302.775, 195.790 312, 194.313 317.500 C 191.786 326.905, 191.625 328.810, 191.606 349.500 C 191.587 369.706, 191.808 372.547, 194.316 384.337 C 204.763 433.450, 230.559 476.862, 261.655 497.662 C 276.331 507.478, 288.319 511.314, 304.500 511.372 C 312.930 511.402, 317.319 510.895, 323.285 509.199 C 330.377 507.184, 342.457 501.654, 349.148 497.360 C 351.725 495.706, 351.927 495.745, 356.677 498.793 C 370.248 507.501, 383.190 511.386, 398.500 511.347 C 411.796 511.313, 419.081 509.576, 431.503 503.477 C 469.011 485.060, 502.178 430.612, 510.450 373.872 C 512.437 360.247, 512.448 337.868, 510.474 326.381 C 503.137 283.682, 474.855 256.529, 435.395 254.299 C 413.525 253.063, 390.893 259.624, 372.202 272.621 C 368.738 275.029, 365.643 277, 365.323 277 C 364.229 277, 366.070 266.984, 368.465 259.905 C 373.579 244.791, 383.934 232.402, 397.289 225.422 L 404.793 221.500 399.110 207.269 L 393.427 193.038 387.035 196.061" stroke="none" fill="#000000" fill-rule="evenodd"/></svg>