<svg xmlns="http://www.w3.org/2000/svg" width="3321" height="569" viewBox="0 0 3321 569" version="1.1"><path d="M 74.338 59.250 C 76.655 107.391, 103.143 157.965, 142.581 189.548 C 167.288 209.333, 190.954 220.464, 224.720 228.182 C 234.454 230.407, 234.993 230.419, 338.917 230.740 C 456.188 231.102, 451.908 231.322, 478.888 223.540 C 533.887 207.676, 578.767 166.239, 600.111 111.619 C 606.952 94.113, 612 69.818, 612 54.401 L 612 46 539.907 46 C 471.862 46, 467.266 46.112, 458.045 47.991 C 430.543 53.595, 401.698 67.370, 378.888 85.793 C 369.622 93.276, 351.785 111.733, 347 118.788 C 345.075 121.626, 343.275 123.955, 343 123.964 C 342.725 123.973, 340.475 121.191, 338 117.782 C 326.267 101.623, 304.787 82.422, 285.326 70.696 C 271.719 62.498, 264.185 59.073, 247.500 53.499 C 224.573 45.840, 226.749 46, 145.740 46 L 73.700 46 74.338 59.250 M 1064.248 276.738 L 1064.500 490.500 1103.500 490.500 L 1142.500 490.500 1142.500 277 L 1142.500 63.500 1103.248 63.238 L 1063.995 62.977 1064.248 276.738 M 750 283.011 L 750 491.023 790.250 490.761 L 830.500 490.500 830.756 405.755 L 831.011 321.010 924.756 320.755 L 1018.500 320.500 1018.500 284.500 L 1018.500 248.500 924.750 248.245 L 831 247.990 831 197.495 L 831 147 929.500 147 L 1028 147 1028 111 L 1028 75 889 75 L 750 75 750 283.011 M 1308 199.071 C 1296.853 200.318, 1276.769 205.229, 1267.156 209.058 C 1249.129 216.239, 1228.894 229.769, 1215 243.930 C 1181.655 277.917, 1167.281 325.277, 1175.597 373.759 C 1180.418 401.869, 1196.814 432.819, 1217.665 453.172 C 1232.541 467.692, 1257.175 482.904, 1275.528 488.902 C 1293.323 494.717, 1319.914 497.687, 1339.335 496.028 C 1363.304 493.981, 1378.124 489.965, 1397.500 480.270 C 1413.656 472.186, 1422.040 466.038, 1436.003 452.037 C 1450.167 437.836, 1456.656 428.785, 1465.073 411.496 C 1474.597 391.931, 1478.987 371.432, 1478.990 346.500 C 1478.993 321.716, 1474.525 301.687, 1464.488 281.500 C 1445.562 243.437, 1410.260 214.376, 1370.394 204.042 C 1350.994 199.013, 1326.186 197.037, 1308 199.071 M 2176.251 199.058 C 2123.993 204.995, 2079.628 234.758, 2057.087 279 C 2049.958 292.993, 2046.722 301.836, 2043.818 315.266 C 2041.933 323.983, 2041.598 328.688, 2041.554 347 C 2041.483 377.280, 2044.352 390.651, 2056.037 414.500 C 2071.504 446.068, 2097.550 470.165, 2132.082 484.855 C 2159.898 496.688, 2196.429 499.701, 2229.356 492.878 C 2254.411 487.687, 2279.214 474.507, 2299.500 455.605 L 2307.500 448.151 2282.081 422.649 L 2256.662 397.147 2249.581 403.647 C 2233.940 418.006, 2210.008 425.258, 2186.169 422.864 C 2156.420 419.877, 2133.863 401.494, 2124.370 372.500 C 2120.836 361.705, 2119.951 342.362, 2122.423 329.919 C 2127.662 303.539, 2146.018 283.412, 2172.500 275.008 C 2183.016 271.671, 2200.466 271.174, 2213.359 273.843 C 2226.490 276.562, 2241.170 283.702, 2249.868 291.599 L 2256.235 297.381 2281.036 271.940 L 2305.836 246.500 2299.168 239.690 C 2274.127 214.117, 2238.841 199.590, 2199.160 198.517 C 2191.097 198.299, 2180.788 198.542, 2176.251 199.058 M 1641.235 200.497 C 1620.900 204.184, 1608.075 210.428, 1594.250 223.374 L 1589 228.290 1589 216.633 L 1589 204.977 1549.993 205.238 L 1510.986 205.500 1510.986 348 L 1510.986 490.500 1549.962 490.762 L 1588.937 491.023 1589.239 403.262 C 1589.573 305.959, 1589.208 311.448, 1596.293 297.057 C 1609.819 269.581, 1652.423 260.957, 1676.831 280.754 C 1680.471 283.706, 1681.365 284.046, 1682.433 282.883 C 1683.132 282.122, 1693.067 270.700, 1704.511 257.500 C 1715.956 244.300, 1726.441 232.279, 1727.812 230.786 L 1730.305 228.072 1724.402 222.482 C 1711.439 210.204, 1696.696 202.941, 1678.863 200.048 C 1670.231 198.647, 1650.117 198.887, 1641.235 200.497 M 1827.238 200.590 C 1784.193 207.813, 1748.816 234.465, 1728.535 274.953 C 1714.481 303.008, 1709.177 339.285, 1714.126 373.500 C 1719.006 407.234, 1732.342 434.400, 1755.432 457.641 C 1778.811 481.173, 1803.790 492.774, 1838.036 496.003 C 1858.214 497.906, 1883.649 493.990, 1899.277 486.574 C 1908.657 482.122, 1920.864 474.143, 1926.820 468.569 L 1931.500 464.190 1931.500 477.345 L 1931.500 490.500 1970.250 490.762 L 2009 491.023 2009 348 L 2009 204.977 1970.250 205.238 L 1931.500 205.500 1931.500 218.155 L 1931.500 230.810 1927 226.606 C 1913.083 213.605, 1892.406 204.021, 1870.672 200.496 C 1859.429 198.672, 1838.395 198.718, 1827.238 200.590 M 2423 200.493 C 2397.387 204.892, 2377.659 213.939, 2358.263 230.180 C 2333.225 251.148, 2316.260 281.867, 2309.864 317.822 C 2307.404 331.653, 2306.901 359.732, 2308.885 372.500 C 2314.486 408.548, 2329.021 437.518, 2352.910 460.252 C 2375.593 481.838, 2400.455 492.931, 2433.036 496.003 C 2452.561 497.845, 2478.034 494.085, 2493.476 487.084 C 2502.045 483.198, 2515.874 474.133, 2522.062 468.345 L 2527 463.726 2527 477.363 L 2527 491 2565.500 491 L 2604 491 2604 348 L 2604 205 2565.500 205 L 2527 205 2527 218.137 L 2527 231.274 2522.250 226.838 C 2507.731 213.280, 2487.875 204.101, 2465.051 200.396 C 2454.602 198.699, 2433.155 198.749, 2423 200.493 M 2794 200.413 C 2771.890 204.339, 2757.097 210.875, 2740.538 224.034 L 2733 230.024 2733 217.512 L 2733 205 2694 205 L 2655 205 2655 348 L 2655 491 2694 491 L 2733 491 2733.015 404.750 C 2733.031 309.727, 2732.892 312.071, 2739.284 299.061 C 2749.826 277.608, 2776.987 265.900, 2803.287 271.473 C 2821.942 275.426, 2836.728 288.459, 2843.447 306.873 C 2845.445 312.349, 2845.513 314.882, 2846 401.500 L 2846.500 490.500 2885.500 490.500 L 2924.500 490.500 2924.799 400 C 2924.997 340.269, 2924.731 305.846, 2924.018 298.754 C 2922.632 284.969, 2919.206 273.257, 2912.856 260.596 C 2906.483 247.888, 2900.414 239.674, 2889.834 229.435 C 2875.258 215.330, 2860.534 206.990, 2841.160 201.866 C 2831.248 199.244, 2805.113 198.439, 2794 200.413 M 3066 200.478 C 3033.801 205.941, 3005.578 221.928, 2985.379 246.146 C 2965.141 270.409, 2953.746 299.832, 2950.915 335.131 C 2947.986 371.657, 2957.071 407.744, 2976.814 438 C 2983.813 448.727, 3001.787 466.788, 3012.500 473.860 C 3043.938 494.611, 3080.324 501.276, 3117.672 493.125 C 3135.188 489.302, 3152.623 480.131, 3165.250 468.101 L 3170 463.575 3170 477.288 L 3170 491 3208.500 491 L 3247 491 3247 348 L 3247 205 3208.500 205 L 3170 205 3170 218.137 L 3170 231.274 3165.062 226.655 C 3158.998 220.983, 3145.462 212.064, 3137.723 208.641 C 3130.219 205.322, 3118.726 202.129, 3108.051 200.396 C 3097.640 198.706, 3076.198 198.747, 3066 200.478 M 159.248 317.750 L 159.611 369.500 162.339 381.763 C 169.174 412.483, 179.748 434.905, 198.292 458 C 223.772 489.735, 258.296 511.011, 299 520.066 C 303.675 521.106, 308.738 521.966, 310.250 521.978 C 311.762 521.990, 313 522.450, 313 523 C 313 523.624, 318.817 524, 328.452 524 L 343.904 524 344.222 460.250 C 344.539 396.672, 344.546 396.481, 346.858 389.500 C 353.374 369.830, 367.110 354.266, 385.190 346.068 C 398.060 340.232, 400.886 339.842, 436 339.042 C 472.369 338.214, 474.726 337.845, 488.093 330.891 C 510.136 319.423, 527 293.219, 527 270.435 L 527 266 342.943 266 L 158.885 266 159.248 317.750 M 1852.107 272.096 C 1827.470 275.870, 1807.779 291.519, 1798.473 314.721 C 1790.822 333.795, 1791.237 365.068, 1799.384 383.371 C 1805.453 397.007, 1817.834 410.212, 1830.335 416.383 C 1841.872 422.077, 1848.601 423.500, 1864 423.500 C 1879.360 423.500, 1885.808 422.140, 1897.968 416.333 C 1908.867 411.129, 1921.234 398.533, 1926.856 386.910 C 1942.833 353.879, 1936.248 310.682, 1911.875 288.625 C 1904.800 282.223, 1892.386 275.741, 1883 273.550 C 1874.438 271.551, 1860.078 270.875, 1852.107 272.096 M 2450 271.655 C 2431.605 274.095, 2415.237 282.701, 2404.884 295.378 C 2393.714 309.056, 2388.060 326.462, 2388.022 347.292 C 2387.961 380.203, 2401.508 404.639, 2426.467 416.639 C 2438.676 422.509, 2448.292 424.386, 2463 423.771 C 2483.048 422.932, 2497.549 416.506, 2510.593 402.683 C 2528.454 383.756, 2534.892 355.156, 2527.989 325.403 C 2524.479 310.275, 2517.286 297.897, 2506.268 288.023 C 2499.569 282.019, 2487.296 275.739, 2478 273.558 C 2471.058 271.929, 2455.770 270.890, 2450 271.655 M 3093.500 271.597 C 3071.658 274.676, 3053.738 285.540, 3042.910 302.270 C 3038.215 309.523, 3033.596 322.183, 3031.976 332.239 C 3030.414 341.937, 3031.211 362.076, 3033.510 371 C 3038.807 391.555, 3051.569 407.857, 3069 416.335 C 3081.583 422.455, 3091.630 424.441, 3106.448 423.735 C 3130.308 422.600, 3148.475 412.449, 3161.489 392.980 C 3170.035 380.196, 3173.238 368.059, 3173.359 348 C 3173.485 327.235, 3169.611 313.617, 3159.580 299.559 C 3150.563 286.924, 3138.181 278.274, 3123.148 274.108 C 3116.034 272.137, 3099.566 270.742, 3093.500 271.597 M 1309.500 273.556 C 1305.650 274.391, 1298.257 277.102, 1293.072 279.580 C 1285.085 283.397, 1282.316 285.417, 1274.958 292.793 C 1267.892 299.876, 1265.514 303.085, 1262.206 310 C 1255.321 324.393, 1254.500 328.335, 1254.500 347 C 1254.500 366.203, 1255.572 371.358, 1262.560 385.759 C 1270.980 403.109, 1287.128 416.023, 1306.713 421.069 C 1314.812 423.156, 1331.596 423.887, 1339.500 422.498 C 1370.869 416.984, 1393.057 394.490, 1397.886 363.308 C 1400.439 346.825, 1398.187 325.641, 1392.579 313.392 C 1384.181 295.049, 1368.348 281.254, 1348.500 274.987 C 1339.245 272.065, 1319.681 271.347, 1309.500 273.556" stroke="none" fill="#101010" fill-rule="evenodd"/></svg>